<svg width="317" height="533" viewBox="0 0 317 533" fill="none" xmlns="http://www.w3.org/2000/svg">
<path d="M270.475 342.778L270.458 309.516H271.836V341.96L297.786 369.326V429.651L308.728 441.708V494.387L280.262 525.5L278.953 524.055L307.349 493.531L307.332 442.526L296.425 430.488V370.125L270.475 342.778Z" fill="#F2F2F2" fill-opacity="0.4"/>
<path d="M232.222 523.618L232.24 467.896L267.735 428.719L267.718 388.763L233.584 351.107V222.49L260.912 192.366L260.895 149.709L263.634 149.69L263.617 193.241L236.323 223.384V350.271L270.475 387.964V429.556L233.584 468.789V523.618H232.222Z" fill="#F2F2F2" fill-opacity="0.4"/>
<path d="M207.634 227.226L207.651 139.421L221.298 124.017V60.7446H222.659L222.676 124.911L208.995 140.239L208.978 226.389L256.811 279.202L256.794 358.791L290.963 396.427L290.98 492.676L275.937 508.993L275.92 525.12L273.198 525.158L273.215 508.175L288.223 491.877V396.598L255.45 360.407L255.467 280.038L207.634 227.226Z" fill="#F2F2F2" fill-opacity="0.4"/>
<path d="M95.6149 410.519L95.5976 374.88L128.406 338.214L128.423 291.905L222.659 187.821V150.318L225.399 150.28V188.696L131.128 292.742V339.108L98.3547 375.736V410.538L95.6149 410.519Z" fill="#F2F2F2" fill-opacity="0.4"/>
<path d="M199.432 454.108L199.414 402.379L218.558 381.517L218.541 267.315L222.659 267.296V383.19L203.533 404.11V452.415L228.121 478.945V525.12H224.02L223.986 480.618L199.432 454.108Z" fill="#F2F2F2" fill-opacity="0.4"/>
<path d="M165.28 363.412L165.297 280.875H166.658L166.641 362.556L189.868 388.268V478.489L204.894 495.072L204.911 529.646L203.533 529.665V495.985L188.507 479.382L188.49 389.086L165.28 363.412Z" fill="#F2F2F2" fill-opacity="0.4"/>
<path d="M131.128 422.12L131.145 385.834L202.172 307.443L202.189 257.122L168.02 219.485L168.037 96.1362L148.893 75.2928V45.6631H152.994V73.5621L172.121 94.4816L172.052 218.477L204.894 254.725V309.858L135.229 386.747L135.212 420.465L150.255 437.201V528.144L146.154 528.125V438.931L131.128 422.12Z" fill="#F2F2F2" fill-opacity="0.4"/>
<path d="M139.33 374.708L139.382 239.682L195.331 177.741L195.314 105.987L199.432 105.93L199.414 179.376L143.431 241.336L143.397 372.958L169.381 401.865L169.364 525.119L165.28 525.081V403.596L139.33 374.708Z" fill="#F2F2F2" fill-opacity="0.4"/>
<path d="M127.027 91.2489V46.1387L128.405 46.1767L128.388 90.393L155.717 120.821L155.699 208.512L154.355 208.531L154.338 121.715L127.027 91.2489Z" fill="#F2F2F2" fill-opacity="0.4"/>
<path d="M50.5387 495.414L50.5215 338.441L90.1528 294.7L90.17 214.484L118.842 183.009L118.86 151.211L121.565 151.249V183.827L92.8926 215.32V294.776L51.8999 340.02V494.653L77.8671 522.685V532.651L76.4886 532.67L76.5575 523.541L50.5387 495.414Z" fill="#F2F2F2" fill-opacity="0.4"/>
<path d="M0 469.988L0.0344957 338.119L13.6469 323.095L13.6642 251.664L98.3546 158.211V31.5714L81.0202 12.6868L82.3642 11.2415L99.7159 30.6966L99.6642 159.066L15.0255 252.501L15.0426 324.635L2.72253 338.195V469.075L12.2857 479.363L12.2685 531.149H9.56319V480.257L0 469.988Z" fill="#F2F2F2" fill-opacity="0.4"/>
<path d="M79.2281 232.626V124.073L81.9507 124.111V231.808L117.481 271.479L117.533 413.314L158.456 458.576V528.143H157.095L157.078 459.394L114.741 414.189V272.354L79.2281 232.626Z" fill="#F2F2F2" fill-opacity="0.4"/>
<path d="M271.544 313.244C270.801 313.251 270.073 313.014 269.453 312.564C268.833 312.113 268.349 311.469 268.061 310.714C267.774 309.958 267.697 309.125 267.84 308.321C267.984 307.517 268.34 306.778 268.865 306.199C269.39 305.619 270.06 305.225 270.788 305.067C271.517 304.909 272.271 304.994 272.956 305.311C273.641 305.628 274.224 306.163 274.632 306.848C275.041 307.532 275.255 308.335 275.248 309.155C275.231 310.233 274.835 311.262 274.144 312.024C273.453 312.787 272.521 313.224 271.544 313.244Z" fill="#F2F2F2" fill-opacity="0.4"/>
<path d="M261.929 153.684C260.945 153.69 259.999 153.264 259.298 152.502C258.597 151.739 258.199 150.701 258.19 149.615C258.19 148.52 258.583 147.471 259.285 146.697C259.986 145.923 260.937 145.488 261.929 145.488C262.92 145.488 263.871 145.923 264.573 146.697C265.274 147.471 265.668 148.52 265.668 149.615C265.666 150.153 265.567 150.686 265.378 151.182C265.188 151.679 264.912 152.129 264.564 152.507C264.217 152.885 263.805 153.184 263.353 153.386C262.901 153.588 262.417 153.689 261.929 153.684Z" fill="#F2F2F2" fill-opacity="0.4"/>
<path d="M222.831 155.149C222.32 155.187 221.807 155.109 221.325 154.92C220.842 154.73 220.4 154.433 220.025 154.047C219.651 153.661 219.352 153.194 219.148 152.675C218.944 152.156 218.839 151.597 218.839 151.031C218.839 150.466 218.944 149.906 219.148 149.388C219.352 148.869 219.651 148.402 220.025 148.016C220.4 147.63 220.842 147.333 221.325 147.143C221.807 146.954 222.32 146.876 222.831 146.914C223.343 146.876 223.856 146.954 224.338 147.143C224.821 147.333 225.263 147.63 225.638 148.016C226.012 148.402 226.311 148.869 226.515 149.388C226.719 149.906 226.824 150.466 226.824 151.031C226.824 151.597 226.719 152.156 226.515 152.675C226.311 153.194 226.012 153.661 225.638 154.047C225.263 154.433 224.821 154.73 224.338 154.92C223.856 155.109 223.343 155.187 222.831 155.149Z" fill="#F2F2F2" fill-opacity="0.4"/>
<path d="M127.596 50.9695C126.609 50.9695 125.662 50.5367 124.964 49.7663C124.266 48.996 123.874 47.9511 123.874 46.8617C123.895 45.7761 124.293 44.7411 124.986 43.9698C125.678 43.1985 126.612 42.7496 127.596 42.7158C128.591 42.7357 129.539 43.1847 130.238 43.9666C130.937 44.7486 131.33 45.8014 131.335 46.8997C131.335 47.439 131.238 47.973 131.049 48.4705C130.861 48.968 130.584 49.4192 130.237 49.7979C129.889 50.1766 129.476 50.4751 129.023 50.6763C128.569 50.8774 128.084 50.977 127.596 50.9695Z" fill="#F2F2F2" fill-opacity="0.4"/>
<path d="M155.217 213.248C154.477 213.248 153.754 213.006 153.14 212.553C152.525 212.099 152.045 211.455 151.762 210.701C151.479 209.946 151.405 209.117 151.55 208.316C151.694 207.516 152.05 206.78 152.573 206.203C153.096 205.626 153.762 205.233 154.488 205.074C155.213 204.914 155.965 204.996 156.648 205.309C157.331 205.621 157.915 206.15 158.326 206.829C158.737 207.507 158.956 208.305 158.956 209.121C158.961 209.665 158.867 210.203 158.681 210.706C158.495 211.209 158.219 211.666 157.871 212.051C157.523 212.435 157.109 212.739 156.653 212.944C156.198 213.15 155.709 213.253 155.217 213.248Z" fill="#F2F2F2" fill-opacity="0.4"/>
<path d="M120.479 155.719C119.99 155.724 119.504 155.622 119.051 155.419C118.597 155.216 118.185 154.915 117.837 154.535C117.49 154.155 117.214 153.702 117.025 153.204C116.837 152.705 116.74 152.171 116.74 151.63C116.749 150.544 117.144 149.505 117.84 148.737C118.536 147.968 119.478 147.532 120.462 147.522C120.971 147.484 121.482 147.562 121.962 147.75C122.443 147.939 122.883 148.235 123.256 148.619C123.629 149.003 123.926 149.468 124.129 149.984C124.332 150.501 124.437 151.058 124.437 151.621C124.437 152.184 124.332 152.741 124.129 153.257C123.926 153.774 123.629 154.238 123.256 154.623C122.883 155.007 122.443 155.303 121.962 155.491C121.482 155.68 120.971 155.757 120.462 155.719H120.479Z" fill="#F2F2F2" fill-opacity="0.4"/>
<path d="M98.1134 163.25C97.1382 163.24 96.2055 162.808 95.5159 162.047C94.8264 161.286 94.435 160.256 94.426 159.18C94.4191 158.643 94.5096 158.109 94.6923 157.611C94.8749 157.113 95.146 156.66 95.4895 156.279C95.8331 155.898 96.2422 155.596 96.6928 155.393C97.1434 155.189 97.6264 155.086 98.1134 155.091C98.62 155.053 99.1283 155.13 99.6067 155.318C100.085 155.506 100.524 155.8 100.895 156.183C101.266 156.565 101.562 157.028 101.764 157.542C101.966 158.056 102.071 158.61 102.071 159.171C102.071 159.731 101.966 160.285 101.764 160.8C101.562 161.314 101.266 161.776 100.895 162.159C100.524 162.541 100.085 162.836 99.6067 163.023C99.1283 163.211 98.62 163.288 98.1134 163.25Z" fill="#F2F2F2" fill-opacity="0.4"/>
<path d="M130.68 341.523C129.697 341.508 128.759 341.066 128.069 340.294C127.379 339.522 126.992 338.481 126.992 337.396C126.992 336.307 127.385 335.262 128.083 334.491C128.781 333.721 129.727 333.288 130.714 333.288C131.701 333.288 132.648 333.721 133.346 334.491C134.044 335.262 134.436 336.307 134.436 337.396C134.427 338.491 134.028 339.537 133.325 340.31C132.622 341.082 131.672 341.518 130.68 341.523Z" fill="#F2F2F2" fill-opacity="0.4"/>
<path d="M190.282 392.871C189.54 392.882 188.811 392.649 188.189 392.202C187.567 391.755 187.08 391.113 186.789 390.359C186.499 389.605 186.418 388.772 186.558 387.968C186.698 387.163 187.051 386.422 187.574 385.84C188.097 385.258 188.764 384.861 189.492 384.699C190.22 384.537 190.975 384.618 191.661 384.932C192.347 385.245 192.933 385.777 193.344 386.459C193.755 387.142 193.973 387.944 193.969 388.763C193.972 389.3 193.878 389.832 193.694 390.329C193.51 390.826 193.239 391.279 192.897 391.66C192.554 392.041 192.147 392.345 191.698 392.553C191.25 392.76 190.768 392.869 190.282 392.871Z" fill="#F2F2F2" fill-opacity="0.4"/>
<path d="M234.893 226.94C233.91 226.921 232.972 226.482 232.275 225.717C231.578 224.951 231.176 223.917 231.154 222.832C231.218 221.789 231.639 220.811 232.332 220.097C233.024 219.383 233.937 218.985 234.885 218.985C235.832 218.985 236.745 219.383 237.437 220.097C238.13 220.811 238.551 221.789 238.615 222.832C238.606 223.919 238.211 224.958 237.515 225.726C236.819 226.494 235.877 226.93 234.893 226.94Z" fill="#F2F2F2" fill-opacity="0.4"/>
<path d="M166.71 285.476C166.219 285.479 165.731 285.374 165.277 285.167C164.822 284.961 164.409 284.657 164.061 284.273C163.713 283.89 163.438 283.434 163.251 282.932C163.064 282.43 162.969 281.892 162.971 281.35C163.035 280.306 163.456 279.328 164.149 278.614C164.841 277.9 165.754 277.503 166.702 277.503C167.649 277.503 168.562 277.9 169.254 278.614C169.947 279.328 170.368 280.306 170.432 281.35C170.434 281.891 170.34 282.427 170.154 282.927C169.968 283.428 169.694 283.883 169.348 284.267C169.002 284.65 168.591 284.954 168.138 285.162C167.686 285.37 167.2 285.476 166.71 285.476Z" fill="#F2F2F2" fill-opacity="0.4"/>
<path d="M91.8758 299.303C91.3692 299.342 90.8609 299.264 90.3825 299.077C89.904 298.889 89.4656 298.595 89.0946 298.212C88.7235 297.83 88.4275 297.367 88.2252 296.853C88.0229 296.339 87.9185 295.785 87.9185 295.224C87.9185 294.664 88.0229 294.109 88.2252 293.595C88.4275 293.081 88.7235 292.618 89.0946 292.236C89.4656 291.853 89.904 291.559 90.3825 291.371C90.8609 291.184 91.3692 291.107 91.8758 291.145C92.3824 291.107 92.8906 291.184 93.3691 291.371C93.8475 291.559 94.2859 291.853 94.657 292.236C95.0281 292.618 95.324 293.081 95.5263 293.595C95.7286 294.109 95.833 294.664 95.833 295.224C95.833 295.785 95.7286 296.339 95.5263 296.853C95.324 297.367 95.0281 297.83 94.657 298.212C94.2859 298.595 93.8475 298.889 93.3691 299.077C92.8906 299.264 92.3824 299.342 91.8758 299.303Z" fill="#F2F2F2" fill-opacity="0.4"/>
<path d="M52.2445 343.425C51.2556 343.415 50.3098 342.977 49.6105 342.205C48.9112 341.433 48.5144 340.389 48.5054 339.298C48.5031 338.754 48.5981 338.215 48.785 337.713C48.9719 337.21 49.247 336.753 49.5944 336.367C49.9418 335.982 50.3548 335.676 50.8095 335.468C51.2643 335.259 51.752 335.152 52.2445 335.152C53.2306 335.171 54.1715 335.612 54.8689 336.382C55.5663 337.152 55.9659 338.19 55.9836 339.279C55.9836 340.375 55.5902 341.427 54.8895 342.204C54.1888 342.98 53.2377 343.42 52.2445 343.425Z" fill="#F2F2F2" fill-opacity="0.4"/>
<path d="M81.3994 15.0443C80.6632 15.0443 79.9437 14.8034 79.3316 14.352C78.7196 13.9006 78.2425 13.259 77.9608 12.5084C77.6791 11.7578 77.6054 10.9319 77.749 10.135C77.8926 9.33817 78.2471 8.60622 78.7676 8.03173C79.2881 7.45724 79.9513 7.06604 80.6733 6.90754C81.3953 6.74904 82.1436 6.8304 82.8237 7.14132C83.5038 7.45223 84.0851 7.97871 84.4941 8.65424C84.9031 9.32977 85.1213 10.1239 85.1213 10.9364C85.1168 12.0243 84.7232 13.0663 84.0262 13.8356C83.3292 14.6049 82.3851 15.0393 81.3994 15.0443Z" fill="#F2F2F2" fill-opacity="0.4"/>
<path d="M80.7444 129.056C79.7619 129.056 78.8196 128.625 78.1248 127.858C77.4301 127.091 77.0398 126.051 77.0398 124.967C77.0398 123.883 77.4301 122.843 78.1248 122.076C78.8196 121.309 79.7619 120.878 80.7444 120.878C81.7256 120.868 82.6709 121.286 83.3744 122.041C84.0779 122.796 84.4826 123.827 84.5007 124.91C84.4918 126.006 84.0932 127.055 83.3907 127.831C82.6882 128.606 81.7379 129.046 80.7444 129.056Z" fill="#F2F2F2" fill-opacity="0.4"/>
<path d="M97.8549 411.888C97.3641 411.893 96.8773 411.79 96.4227 411.586C95.9681 411.382 95.5549 411.08 95.207 410.697C94.8591 410.315 94.5834 409.86 94.3961 409.36C94.2088 408.859 94.1135 408.322 94.1158 407.78C94.1158 407.243 94.2117 406.712 94.3979 406.215C94.5841 405.719 94.857 405.269 95.201 404.889C95.545 404.509 95.9534 404.208 96.4028 404.003C96.8523 403.797 97.334 403.691 97.8205 403.691C98.307 403.691 98.7888 403.797 99.2382 404.003C99.6877 404.208 100.096 404.509 100.44 404.889C100.784 405.269 101.057 405.719 101.243 406.215C101.429 406.712 101.525 407.243 101.525 407.78C101.525 408.86 101.14 409.896 100.453 410.665C99.7665 411.434 98.833 411.873 97.8549 411.888Z" fill="#F2F2F2" fill-opacity="0.4"/>
<path d="M204.532 499.37C203.54 499.37 202.589 498.935 201.888 498.161C201.187 497.387 200.793 496.337 200.793 495.243C200.793 494.148 201.187 493.099 201.888 492.325C202.589 491.551 203.54 491.116 204.532 491.116C205.524 491.116 206.475 491.551 207.176 492.325C207.877 493.099 208.271 494.148 208.271 495.243C208.271 496.337 207.877 497.387 207.176 498.161C206.475 498.935 205.524 499.37 204.532 499.37Z" fill="#F2F2F2" fill-opacity="0.4"/>
<path d="M116.361 276.197C115.879 276.204 115.4 276.105 114.952 275.906C114.505 275.706 114.098 275.409 113.757 275.034C113.415 274.658 113.144 274.211 112.961 273.718C112.778 273.225 112.686 272.697 112.691 272.165C112.656 271.603 112.726 271.04 112.897 270.509C113.068 269.979 113.336 269.493 113.684 269.081C114.032 268.67 114.454 268.342 114.921 268.118C115.389 267.893 115.894 267.778 116.404 267.778C116.914 267.778 117.419 267.893 117.887 268.118C118.355 268.342 118.776 268.67 119.124 269.081C119.472 269.493 119.74 269.979 119.911 270.509C120.082 271.04 120.152 271.603 120.117 272.165C120.115 272.703 120.016 273.236 119.825 273.731C119.634 274.227 119.356 274.675 119.006 275.051C118.656 275.426 118.242 275.721 117.788 275.918C117.334 276.114 116.849 276.209 116.361 276.197Z" fill="#F2F2F2" fill-opacity="0.4"/>
<path d="M256.191 283.613C255.454 283.617 254.734 283.38 254.12 282.932C253.506 282.483 253.026 281.844 252.741 281.095C252.457 280.346 252.379 279.52 252.52 278.723C252.66 277.925 253.011 277.191 253.529 276.614C254.048 276.037 254.709 275.643 255.43 275.48C256.152 275.318 256.9 275.396 257.582 275.703C258.263 276.011 258.847 276.534 259.258 277.208C259.67 277.881 259.892 278.674 259.895 279.486C259.898 280.026 259.804 280.561 259.619 281.06C259.434 281.559 259.161 282.014 258.817 282.397C258.473 282.78 258.064 283.085 257.614 283.293C257.163 283.502 256.679 283.611 256.191 283.613Z" fill="#F2F2F2" fill-opacity="0.4"/>
<path d="M296.666 374.005C295.926 374.008 295.201 373.77 294.584 373.318C293.967 372.867 293.485 372.224 293.199 371.47C292.914 370.717 292.837 369.886 292.98 369.084C293.122 368.283 293.477 367.545 293.999 366.966C294.521 366.387 295.187 365.992 295.913 365.832C296.639 365.671 297.392 365.751 298.076 366.063C298.76 366.375 299.345 366.904 299.757 367.583C300.168 368.262 300.388 369.061 300.388 369.878C300.384 370.967 299.991 372.011 299.294 372.784C298.598 373.556 297.653 373.995 296.666 374.005Z" fill="#F2F2F2" fill-opacity="0.4"/>
<path d="M307.591 446.12C306.608 446.12 305.666 445.689 304.971 444.923C304.276 444.156 303.886 443.116 303.886 442.031C303.879 441.492 303.97 440.957 304.154 440.458C304.338 439.958 304.61 439.504 304.956 439.123C305.301 438.742 305.712 438.441 306.165 438.238C306.617 438.035 307.102 437.935 307.591 437.943C308.571 437.937 309.513 438.357 310.216 439.111C310.918 439.865 311.324 440.893 311.347 441.974C311.325 443.066 310.922 444.107 310.223 444.879C309.523 445.651 308.58 446.096 307.591 446.12Z" fill="#F2F2F2" fill-opacity="0.4"/>
<path d="M307.591 498.076C306.85 498.08 306.125 497.841 305.507 497.389C304.89 496.937 304.408 496.292 304.123 495.538C303.837 494.783 303.762 493.951 303.906 493.149C304.049 492.347 304.406 491.61 304.93 491.031C305.454 490.453 306.122 490.06 306.848 489.901C307.575 489.743 308.329 489.826 309.013 490.14C309.697 490.455 310.28 490.987 310.69 491.669C311.099 492.35 311.316 493.151 311.313 493.969C311.315 494.509 311.22 495.044 311.034 495.544C310.848 496.043 310.574 496.497 310.228 496.879C309.882 497.261 309.471 497.563 309.018 497.769C308.565 497.974 308.08 498.079 307.591 498.076Z" fill="#F2F2F2" fill-opacity="0.4"/>
<path d="M289.895 497.05C289.154 497.054 288.428 496.814 287.811 496.362C287.193 495.91 286.711 495.266 286.426 494.511C286.141 493.756 286.066 492.925 286.209 492.123C286.353 491.32 286.71 490.583 287.233 490.005C287.757 489.427 288.425 489.033 289.152 488.875C289.879 488.716 290.632 488.799 291.316 489.114C292 489.429 292.584 489.961 292.994 490.642C293.403 491.324 293.62 492.124 293.617 492.942C293.619 493.482 293.524 494.018 293.338 494.517C293.152 495.017 292.878 495.471 292.532 495.853C292.185 496.234 291.774 496.537 291.322 496.742C290.869 496.948 290.384 497.053 289.895 497.05Z" fill="#F2F2F2" fill-opacity="0.4"/>
<path d="M268.511 432.617C267.519 432.617 266.568 432.182 265.867 431.408C265.166 430.635 264.772 429.585 264.772 428.49C264.772 427.396 265.166 426.346 265.867 425.572C266.568 424.798 267.519 424.364 268.511 424.364C269.503 424.364 270.454 424.798 271.155 425.572C271.856 426.346 272.25 427.396 272.25 428.49C272.25 429.585 271.856 430.635 271.155 431.408C270.454 432.182 269.503 432.617 268.511 432.617Z" fill="#F2F2F2" fill-opacity="0.4"/>
<path d="M234.893 354.949C234.403 354.964 233.916 354.87 233.459 354.673C233.003 354.476 232.587 354.18 232.237 353.802C231.886 353.424 231.608 352.972 231.419 352.473C231.231 351.975 231.134 351.439 231.137 350.898C231.135 350.355 231.23 349.817 231.417 349.316C231.604 348.814 231.879 348.358 232.227 347.974C232.575 347.59 232.988 347.287 233.442 347.08C233.897 346.874 234.384 346.769 234.876 346.771C235.856 346.786 236.792 347.221 237.487 347.984C238.182 348.747 238.58 349.778 238.598 350.86C238.598 351.944 238.208 352.984 237.513 353.751C236.818 354.518 235.876 354.949 234.893 354.949Z" fill="#F2F2F2" fill-opacity="0.4"/>
<path d="M222.521 66.392C221.532 66.3677 220.589 65.9231 219.889 65.1508C219.19 64.3784 218.787 63.338 218.765 62.2461C218.783 61.1633 219.188 60.1321 219.891 59.3771C220.595 58.622 221.54 58.2041 222.521 58.2143C223.007 58.2042 223.489 58.301 223.94 58.4991C224.391 58.6972 224.802 58.9925 225.149 59.3679C225.495 59.7433 225.771 60.1912 225.959 60.6853C226.146 61.1795 226.243 61.7102 226.243 62.2461C226.243 63.3391 225.852 64.3878 225.155 65.1642C224.458 65.9406 223.511 66.3819 222.521 66.392Z" fill="#F2F2F2" fill-opacity="0.4"/>
<path d="M197.709 112.625C196.99 112.67 196.27 112.553 195.594 112.28C194.917 112.008 194.298 111.586 193.775 111.04C193.251 110.495 192.834 109.837 192.549 109.107C192.264 108.377 192.117 107.591 192.117 106.796C192.117 106.001 192.264 105.215 192.549 104.485C192.834 103.755 193.251 103.097 193.775 102.551C194.298 102.005 194.917 101.583 195.594 101.311C196.27 101.039 196.99 100.921 197.709 100.967C199.057 101.052 200.325 101.703 201.253 102.787C202.18 103.871 202.697 105.305 202.697 106.796C202.697 108.287 202.18 109.721 201.253 110.805C200.325 111.888 199.057 112.54 197.709 112.625Z" fill="#F2F2F2" fill-opacity="0.4"/>
<path d="M220.488 273.553C219.117 273.553 217.802 272.952 216.833 271.882C215.863 270.812 215.319 269.361 215.319 267.848C215.319 266.312 215.871 264.839 216.855 263.753C217.839 262.667 219.174 262.057 220.565 262.057C221.957 262.057 223.292 262.667 224.276 263.753C225.26 264.839 225.812 266.312 225.812 267.848C225.813 268.612 225.674 269.368 225.405 270.072C225.135 270.775 224.74 271.412 224.244 271.944C223.747 272.476 223.159 272.893 222.514 273.169C221.869 273.446 221.18 273.576 220.488 273.553Z" fill="#F2F2F2" fill-opacity="0.4"/>
<path d="M220.247 388.591C219.206 388.58 218.192 388.228 217.333 387.579C216.473 386.931 215.808 386.015 215.421 384.949C215.034 383.882 214.942 382.713 215.158 381.589C215.373 380.465 215.887 379.438 216.632 378.636C217.378 377.834 218.322 377.295 219.346 377.087C220.369 376.879 221.426 377.01 222.382 377.466C223.337 377.921 224.149 378.679 224.714 379.644C225.279 380.609 225.571 381.737 225.554 382.886C225.531 384.418 224.96 385.877 223.966 386.946C222.972 388.015 221.635 388.607 220.247 388.591Z" fill="#F2F2F2" fill-opacity="0.4"/>
<path d="M150.254 51.3306C149.203 51.3531 148.17 51.0283 147.287 50.3976C146.404 49.7669 145.712 48.8594 145.3 47.7915C144.889 46.7236 144.776 45.5441 144.976 44.4047C145.176 43.2654 145.68 42.218 146.424 41.3974C147.167 40.5767 148.116 40.0201 149.148 39.7992C150.181 39.5783 151.249 39.7033 152.217 40.1578C153.185 40.6123 154.007 41.3757 154.578 42.35C155.15 43.3243 155.444 44.4649 155.424 45.6253C155.389 47.1263 154.833 48.5553 153.871 49.617C152.909 50.6787 151.614 51.2921 150.254 51.3306Z" fill="#F2F2F2" fill-opacity="0.4"/>
<path d="M308.159 485.201C309.893 485.209 311.586 485.783 313.024 486.852C314.463 487.921 315.581 489.437 316.239 491.208C316.897 492.978 317.065 494.924 316.722 496.8C316.378 498.676 315.538 500.397 314.308 501.746C313.079 503.095 311.514 504.012 309.813 504.38C308.111 504.749 306.349 504.552 304.749 503.815C303.148 503.079 301.782 501.835 300.822 500.241C299.862 498.648 299.351 496.776 299.354 494.862C299.363 492.293 300.296 489.833 301.947 488.022C303.597 486.211 305.832 485.196 308.159 485.201ZM308.159 486.875C306.72 486.871 305.312 487.339 304.113 488.219C302.915 489.1 301.98 490.353 301.428 491.82C300.875 493.288 300.73 494.903 301.01 496.461C301.29 498.02 301.982 499.452 303 500.575C304.018 501.699 305.316 502.463 306.728 502.772C308.14 503.081 309.603 502.921 310.933 502.311C312.262 501.701 313.398 500.67 314.195 499.347C314.993 498.024 315.417 496.47 315.414 494.881C315.414 492.758 314.649 490.721 313.289 489.22C311.929 487.718 310.083 486.875 308.159 486.875Z" fill="#F2F2F2" fill-opacity="0.4"/>
<path d="M308.159 432.656C309.895 432.656 311.591 433.224 313.034 434.288C314.477 435.353 315.601 436.866 316.264 438.636C316.927 440.406 317.1 442.353 316.76 444.231C316.42 446.11 315.583 447.834 314.355 449.187C313.127 450.54 311.562 451.461 309.86 451.832C308.157 452.204 306.393 452.009 304.791 451.274C303.189 450.538 301.82 449.294 300.859 447.7C299.897 446.106 299.385 444.232 299.389 442.317C299.398 439.754 300.325 437.3 301.969 435.49C303.612 433.68 305.838 432.661 308.159 432.656ZM308.159 434.31C306.717 434.299 305.304 434.762 304.1 435.639C302.897 436.517 301.957 437.769 301.4 439.238C300.843 440.707 300.695 442.325 300.974 443.887C301.253 445.45 301.946 446.885 302.966 448.011C303.986 449.136 305.287 449.902 306.702 450.21C308.117 450.518 309.584 450.354 310.914 449.739C312.245 449.125 313.38 448.087 314.175 446.759C314.97 445.43 315.389 443.871 315.379 442.279C315.382 441.233 315.197 440.198 314.836 439.231C314.475 438.264 313.945 437.386 313.276 436.645C312.607 435.905 311.812 435.318 310.937 434.917C310.062 434.517 309.124 434.31 308.177 434.31H308.159Z" fill="#F2F2F2" fill-opacity="0.4"/>
<path d="M297.338 360.959C299.073 360.959 300.769 361.527 302.211 362.59C303.653 363.654 304.777 365.166 305.441 366.934C306.105 368.703 306.279 370.65 305.94 372.527C305.602 374.405 304.767 376.13 303.54 377.484C302.313 378.837 300.751 379.759 299.049 380.133C297.348 380.506 295.584 380.315 293.982 379.582C292.379 378.849 291.009 377.609 290.046 376.017C289.082 374.425 288.568 372.553 288.568 370.639C288.572 368.073 289.498 365.614 291.142 363.8C292.785 361.985 295.014 360.964 297.338 360.959ZM297.338 362.613C295.41 362.613 293.56 363.459 292.196 364.964C290.833 366.469 290.067 368.51 290.067 370.639C290.067 372.767 290.833 374.809 292.196 376.314C293.56 377.819 295.41 378.664 297.338 378.664C299.267 378.664 301.116 377.819 302.48 376.314C303.844 374.809 304.61 372.767 304.61 370.639C304.61 368.51 303.844 366.469 302.48 364.964C301.116 363.459 299.267 362.613 297.338 362.613Z" fill="#F2F2F2" fill-opacity="0.4"/>
<path d="M272.216 299.797C273.95 299.801 275.645 300.372 277.085 301.439C278.526 302.506 279.647 304.02 280.308 305.79C280.969 307.561 281.139 309.507 280.797 311.384C280.455 313.261 279.617 314.984 278.388 316.335C277.159 317.687 275.594 318.605 273.892 318.975C272.19 319.345 270.427 319.149 268.826 318.413C267.225 317.677 265.857 316.433 264.896 314.839C263.935 313.245 263.424 311.373 263.428 309.458C263.437 306.892 264.367 304.435 266.014 302.624C267.661 300.814 269.891 299.797 272.216 299.797ZM272.216 301.452C270.774 301.444 269.364 301.909 268.163 302.788C266.962 303.667 266.024 304.92 265.47 306.388C264.915 307.856 264.768 309.473 265.048 311.033C265.327 312.594 266.02 314.027 267.039 315.152C268.058 316.277 269.357 317.042 270.771 317.35C272.185 317.659 273.65 317.497 274.98 316.884C276.31 316.272 277.445 315.238 278.242 313.912C279.038 312.586 279.459 311.03 279.453 309.439C279.453 307.324 278.692 305.295 277.339 303.798C275.985 302.3 274.149 301.457 272.233 301.452H272.216Z" fill="#F2F2F2" fill-opacity="0.4"/>
<path d="M268.304 418.792C270.038 418.796 271.732 419.367 273.172 420.433C274.612 421.499 275.734 423.012 276.395 424.781C277.056 426.55 277.227 428.496 276.887 430.372C276.546 432.249 275.71 433.972 274.483 435.324C273.255 436.675 271.692 437.595 269.992 437.967C268.291 438.339 266.528 438.147 264.926 437.413C263.325 436.68 261.956 435.439 260.993 433.848C260.03 432.257 259.516 430.386 259.516 428.472C259.521 425.903 260.449 423.441 262.096 421.626C263.744 419.811 265.976 418.792 268.304 418.792ZM268.304 420.427C266.866 420.431 265.461 420.906 264.267 421.791C263.073 422.676 262.144 423.931 261.597 425.399C261.05 426.867 260.909 428.481 261.193 430.037C261.477 431.593 262.172 433.022 263.192 434.141C264.211 435.261 265.508 436.022 266.92 436.328C268.331 436.634 269.793 436.471 271.12 435.86C272.447 435.249 273.581 434.218 274.377 432.896C275.173 431.574 275.596 430.021 275.593 428.434C275.57 426.315 274.797 424.29 273.437 422.793C272.078 421.297 270.241 420.447 268.321 420.427H268.304Z" fill="#F2F2F2" fill-opacity="0.4"/>
<path d="M262.704 140.181C264.439 140.181 266.136 140.75 267.578 141.814C269.021 142.879 270.145 144.392 270.809 146.161C271.472 147.931 271.645 149.879 271.305 151.757C270.965 153.635 270.128 155.36 268.9 156.713C267.671 158.066 266.107 158.986 264.405 159.358C262.702 159.729 260.938 159.535 259.336 158.799C257.733 158.064 256.365 156.82 255.403 155.226C254.442 153.631 253.93 151.758 253.933 149.842C253.943 147.28 254.87 144.826 256.513 143.015C258.157 141.205 260.382 140.186 262.704 140.181ZM262.704 141.855C260.78 141.855 258.935 142.699 257.575 144.2C256.214 145.702 255.45 147.738 255.45 149.861C255.45 151.985 256.214 154.021 257.575 155.523C258.935 157.024 260.78 157.868 262.704 157.868C264.628 157.868 266.473 157.024 267.834 155.523C269.194 154.021 269.958 151.985 269.958 149.861C269.958 147.738 269.194 145.702 267.834 144.2C266.473 142.699 264.628 141.855 262.704 141.855Z" fill="#F2F2F2" fill-opacity="0.4"/>
<path d="M98.1133 397.72C99.8542 397.713 101.558 398.276 103.008 399.339C104.459 400.402 105.591 401.916 106.26 403.69C106.929 405.464 107.106 407.417 106.768 409.302C106.43 411.187 105.593 412.919 104.362 414.278C103.131 415.636 101.561 416.561 99.8536 416.934C98.1457 417.307 96.376 417.112 94.7689 416.373C93.1617 415.634 91.7896 414.385 90.8266 412.784C89.8636 411.183 89.3531 409.303 89.3599 407.381C89.3734 404.824 90.3001 402.375 91.9387 400.566C93.5774 398.758 95.7959 397.735 98.1133 397.72ZM98.1133 399.394C96.6703 399.383 95.2567 399.844 94.0517 400.72C92.8467 401.597 91.9044 402.848 91.3443 404.316C90.7842 405.784 90.6315 407.402 90.9054 408.966C91.1794 410.529 91.8678 411.968 92.8834 413.099C93.8989 414.231 95.1958 415.004 96.61 415.322C98.0241 415.639 99.4917 415.486 100.827 414.881C102.162 414.277 103.305 413.249 104.11 411.927C104.915 410.606 105.347 409.05 105.35 407.457C105.355 405.334 104.598 403.294 103.246 401.784C101.893 400.273 100.055 399.414 98.1305 399.394H98.1133Z" fill="#F2F2F2" fill-opacity="0.4"/>
<path d="M51.7792 329.103C53.5127 329.1 55.2081 329.664 56.6506 330.725C58.0931 331.786 59.2177 333.296 59.8818 335.063C60.546 336.83 60.7198 338.775 60.3812 340.651C60.0426 342.528 59.2068 344.251 57.9798 345.602C56.7529 346.954 55.19 347.873 53.4893 348.243C51.7886 348.613 50.0266 348.417 48.4267 347.681C46.8269 346.944 45.4612 345.7 44.5027 344.106C43.5443 342.512 43.0363 340.64 43.0431 338.726C43.0656 336.179 43.9939 333.742 45.6279 331.943C47.2618 330.143 49.4708 329.123 51.7792 329.103ZM51.7792 330.739C50.3403 330.739 48.9338 331.21 47.7377 332.093C46.5415 332.975 45.6095 334.23 45.0596 335.698C44.5098 337.165 44.3669 338.78 44.6488 340.337C44.9308 341.894 45.625 343.324 46.6437 344.446C47.6623 345.568 48.9596 346.33 50.3712 346.638C51.7829 346.945 53.2455 346.784 54.5739 346.174C55.9023 345.563 57.0367 344.531 57.8336 343.209C58.6306 341.887 59.0542 340.333 59.0508 338.745C59.0508 337.692 58.8626 336.65 58.497 335.677C58.1313 334.704 57.5954 333.821 56.9199 333.077C56.2445 332.333 55.4428 331.744 54.5607 331.343C53.6785 330.942 52.7333 330.736 51.7792 330.739Z" fill="#F2F2F2" fill-opacity="0.4"/>
<path d="M120.221 141.284C121.949 141.292 123.637 141.864 125.071 142.928C126.505 143.993 127.621 145.502 128.28 147.266C128.938 149.03 129.108 150.969 128.77 152.839C128.431 154.71 127.598 156.428 126.376 157.777C125.154 159.126 123.597 160.045 121.902 160.419C120.207 160.793 118.45 160.605 116.852 159.878C115.254 159.152 113.887 157.919 112.922 156.336C111.958 154.754 111.44 152.891 111.433 150.983C111.433 148.411 112.359 145.944 114.007 144.125C115.655 142.306 117.89 141.284 120.221 141.284ZM120.221 142.958C119.263 142.943 118.311 143.139 117.423 143.536C116.535 143.932 115.727 144.521 115.048 145.267C114.369 146.013 113.832 146.901 113.469 147.88C113.105 148.858 112.923 149.907 112.932 150.964C112.928 152.552 113.352 154.104 114.148 155.426C114.944 156.748 116.077 157.78 117.405 158.391C118.732 159.002 120.194 159.164 121.605 158.858C123.016 158.552 124.314 157.791 125.333 156.672C126.352 155.552 127.048 154.124 127.332 152.568C127.616 151.012 127.475 149.398 126.928 147.93C126.381 146.462 125.451 145.206 124.258 144.321C123.064 143.436 121.659 142.962 120.221 142.958Z" fill="#F2F2F2" fill-opacity="0.4"/>
<path d="M82.1059 0.800293C83.8413 0.800297 85.5376 1.36851 86.9803 2.43301C88.423 3.49751 89.5472 5.01035 90.2105 6.78025C90.8738 8.55016 91.0465 10.4975 90.7067 12.3758C90.3669 14.254 89.5298 15.9788 88.3015 17.3318C87.0732 18.6849 85.5089 19.6053 83.8064 19.9766C82.1039 20.348 80.3398 20.1536 78.7375 19.4181C77.1352 18.6825 75.7667 17.4387 74.805 15.8443C73.8434 14.25 73.3319 12.3766 73.3353 10.4612C73.3444 7.89877 74.2719 5.44443 75.9152 3.63427C77.5585 1.8241 79.7842 0.805298 82.1059 0.800293ZM82.1059 2.47375C80.669 2.47759 79.2654 2.95241 78.0733 3.83786C76.8812 4.72332 75.9542 5.97959 75.4099 7.44734C74.8655 8.91509 74.7284 10.5282 75.0159 12.0821C75.3034 13.636 76.0024 15.0606 77.0245 16.1754C78.0466 17.2901 79.3457 18.0447 80.7569 18.3434C82.1681 18.6422 83.628 18.4716 84.9513 17.8534C86.2746 17.2351 87.4017 16.1971 88.1897 14.8709C88.9777 13.5447 89.391 11.9901 89.3773 10.4042C89.3591 8.28739 88.5821 6.26459 87.2162 4.77842C85.8503 3.29225 84.0067 2.4636 82.0887 2.47375H82.1059Z" fill="#F2F2F2" fill-opacity="0.4"/>
<path d="M80.7961 114.469C83.1271 114.495 85.3552 115.533 86.9971 117.359C88.639 119.186 89.5622 121.653 89.5666 124.226C89.6191 125.532 89.4315 126.836 89.0148 128.06C88.5982 129.283 87.9612 130.401 87.1424 131.346C86.3236 132.291 85.3399 133.043 84.2506 133.556C83.1614 134.07 81.9892 134.335 80.8047 134.335C79.6203 134.335 78.448 134.07 77.3587 133.556C76.2695 133.043 75.2859 132.291 74.4671 131.346C73.6483 130.401 73.0113 129.283 72.5947 128.06C72.178 126.836 71.9902 125.532 72.0427 124.226C72.0426 121.655 72.9621 119.187 74.6012 117.36C76.2403 115.534 78.4667 114.495 80.7961 114.469ZM80.7961 116.2C79.3614 116.2 77.9589 116.67 76.7659 117.549C75.573 118.429 74.6431 119.68 74.0941 121.143C73.545 122.606 73.4014 124.215 73.6813 125.769C73.9612 127.322 74.652 128.748 75.6666 129.868C76.6811 130.988 77.9737 131.75 79.3808 132.059C80.788 132.368 82.2466 132.21 83.5722 131.604C84.8977 130.998 86.0307 129.971 86.8278 128.655C87.6249 127.338 88.0504 125.79 88.0504 124.207C88.0504 122.083 87.2861 120.047 85.9257 118.545C84.5652 117.044 82.7201 116.2 80.7961 116.2Z" fill="#F2F2F2" fill-opacity="0.4"/>
<path d="M127.148 39.0266C128.627 39.0304 130.071 39.5182 131.299 40.4282C132.527 41.3383 133.483 42.6298 134.046 44.1394C134.609 45.649 134.753 47.3088 134.462 48.9091C134.17 50.5095 133.454 51.9783 132.406 53.13C131.358 54.2816 130.024 55.0643 128.572 55.379C127.121 55.6938 125.618 55.5266 124.253 54.8984C122.887 54.2702 121.722 53.2094 120.903 51.85C120.084 50.4906 119.649 48.8938 119.652 47.2613C119.661 45.0739 120.455 42.9794 121.86 41.4362C123.264 39.893 125.166 39.0266 127.148 39.0266ZM127.148 40.4529C125.923 40.4492 124.726 40.8464 123.706 41.5943C122.687 42.3422 121.891 43.4072 121.42 44.6544C120.949 45.9016 120.824 47.275 121.061 48.6006C121.298 49.9262 121.886 51.1445 122.75 52.1012C123.615 53.0579 124.717 53.7101 125.917 53.9751C127.118 54.2401 128.362 54.1059 129.494 53.5898C130.625 53.0736 131.592 52.1985 132.273 51.0753C132.953 49.9522 133.316 48.6315 133.316 47.2804C133.316 45.4729 132.667 43.7391 131.511 42.4593C130.354 41.1795 128.785 40.458 127.148 40.4529Z" fill="#F2F2F2" fill-opacity="0.4"/>
<path d="M222.831 53.7832C224.312 53.7832 225.76 54.2675 226.992 55.1748C228.224 56.0822 229.185 57.3719 229.753 58.8813C230.321 60.3908 230.472 62.0522 230.185 63.6559C229.899 65.2596 229.188 66.7337 228.143 67.8921C227.099 69.0506 225.766 69.8415 224.315 70.165C222.863 70.4885 221.357 70.3301 219.987 69.7098C218.616 69.0894 217.444 68.0351 216.616 66.6796C215.788 65.3242 215.343 63.7285 215.336 62.094C215.349 59.9009 216.142 57.8014 217.544 56.2471C218.946 54.6929 220.844 53.8081 222.831 53.7832ZM222.831 55.2286C221.191 55.2531 219.625 55.9816 218.463 57.2598C217.302 58.5379 216.638 60.2651 216.611 62.0749C216.614 63.4228 216.979 64.7394 217.659 65.8589C218.34 66.9783 219.305 67.8503 220.434 68.3653C221.562 68.8802 222.804 69.015 224.002 68.7525C225.199 68.49 226.3 67.842 227.165 66.8902C228.03 65.9384 228.62 64.7254 228.861 63.4041C229.102 62.0827 228.983 60.7122 228.52 59.4651C228.057 58.218 227.269 57.1502 226.257 56.3963C225.244 55.6424 224.053 55.2361 222.831 55.2286Z" fill="#F2F2F2" fill-opacity="0.4"/>
<path d="M223.297 142.254C224.771 142.258 226.211 142.744 227.435 143.65C228.66 144.556 229.613 145.843 230.176 147.347C230.738 148.851 230.885 150.505 230.596 152.1C230.308 153.696 229.598 155.161 228.555 156.312C227.513 157.462 226.185 158.246 224.739 158.565C223.294 158.883 221.795 158.722 220.432 158.101C219.07 157.48 217.904 156.427 217.083 155.076C216.262 153.725 215.822 152.135 215.818 150.508C215.827 148.322 216.618 146.229 218.019 144.683C219.419 143.137 221.316 142.264 223.297 142.254ZM223.297 143.7C222.076 143.696 220.882 144.092 219.865 144.838C218.848 145.584 218.055 146.646 217.585 147.889C217.116 149.133 216.991 150.503 217.227 151.825C217.463 153.147 218.049 154.362 218.911 155.316C219.773 156.27 220.873 156.92 222.07 157.184C223.267 157.448 224.508 157.315 225.636 156.8C226.764 156.285 227.729 155.413 228.407 154.293C229.086 153.173 229.448 151.856 229.448 150.508C229.45 149.617 229.293 148.734 228.984 147.91C228.676 147.086 228.222 146.338 227.65 145.708C227.079 145.079 226.399 144.581 225.652 144.243C224.905 143.904 224.104 143.733 223.297 143.738V143.7Z" fill="#F2F2F2" fill-opacity="0.4"/>
<path d="M219.816 370.658C222.153 370.654 224.438 371.416 226.382 372.847C228.326 374.278 229.841 376.313 230.736 378.695C231.631 381.078 231.866 383.7 231.409 386.229C230.953 388.758 229.827 391.081 228.173 392.903C226.52 394.726 224.414 395.965 222.121 396.465C219.829 396.965 217.454 396.703 215.296 395.712C213.139 394.72 211.297 393.045 210.004 390.897C208.71 388.749 208.023 386.226 208.03 383.647C208.048 380.205 209.296 376.91 211.503 374.478C213.71 372.046 216.697 370.673 219.816 370.658ZM219.816 372.921C217.294 373.038 214.91 374.226 213.162 376.237C211.415 378.249 210.439 380.927 210.439 383.714C210.439 386.5 211.415 389.179 213.162 391.19C214.91 393.201 217.294 394.389 219.816 394.506C222.414 394.496 224.902 393.353 226.739 391.326C228.576 389.299 229.611 386.552 229.621 383.685C229.625 382.267 229.375 380.862 228.884 379.551C228.394 378.24 227.672 377.05 226.762 376.049C225.852 375.048 224.771 374.256 223.581 373.719C222.392 373.182 221.118 372.911 219.833 372.921H219.816Z" fill="#F2F2F2" fill-opacity="0.4"/>
<path d="M219.799 254.992C222.135 254.988 224.419 255.75 226.363 257.18C228.306 258.61 229.822 260.644 230.717 263.025C231.613 265.406 231.848 268.027 231.393 270.556C230.938 273.085 229.814 275.408 228.162 277.231C226.51 279.054 224.406 280.295 222.114 280.797C219.823 281.299 217.449 281.04 215.291 280.051C213.134 279.063 211.29 277.39 209.995 275.245C208.699 273.1 208.009 270.579 208.013 268C208.022 264.554 209.266 261.251 211.475 258.813C213.683 256.376 216.676 255.002 219.799 254.992ZM219.799 257.255C217.863 257.255 215.971 257.889 214.361 259.076C212.752 260.263 211.497 261.95 210.756 263.924C210.016 265.897 209.822 268.069 210.2 270.165C210.577 272.26 211.509 274.185 212.878 275.696C214.247 277.206 215.991 278.235 217.889 278.652C219.788 279.069 221.756 278.855 223.544 278.037C225.332 277.22 226.861 275.835 227.936 274.059C229.012 272.282 229.586 270.194 229.586 268.057C229.581 265.194 228.549 262.449 226.714 260.425C224.88 258.4 222.393 257.26 219.799 257.255Z" fill="#F2F2F2" fill-opacity="0.4"/>
<path d="M197.726 93.4937C200.061 93.4899 202.345 94.2507 204.288 95.6798C206.231 97.109 207.747 99.1423 208.643 101.522C209.539 103.902 209.775 106.522 209.322 109.051C208.868 111.579 207.745 113.902 206.095 115.726C204.445 117.549 202.342 118.792 200.052 119.296C197.762 119.8 195.388 119.544 193.23 118.558C191.072 117.573 189.228 115.903 187.93 113.76C186.632 111.618 185.94 109.098 185.94 106.521C185.962 103.077 187.211 99.7805 189.416 97.3433C191.621 94.9061 194.605 93.5235 197.726 93.4937ZM197.726 95.7187C195.199 95.8357 192.811 97.0259 191.06 99.0407C189.31 101.055 188.332 103.739 188.332 106.53C188.332 109.322 189.31 112.005 191.06 114.02C192.811 116.035 195.199 117.225 197.726 117.342C199.047 117.403 200.365 117.169 201.602 116.653C202.839 116.137 203.968 115.351 204.923 114.341C205.877 113.331 206.636 112.118 207.155 110.776C207.674 109.434 207.941 107.99 207.941 106.53C207.941 105.071 207.674 103.627 207.155 102.285C206.636 100.943 205.877 99.7299 204.923 98.72C203.968 97.71 202.839 96.9234 201.602 96.4076C200.365 95.8919 199.047 95.6576 197.726 95.7187Z" fill="#F2F2F2" fill-opacity="0.4"/>
<path d="M149.669 32.7879C152.007 32.7841 154.294 33.5461 156.24 34.9774C158.187 36.4086 159.704 38.4448 160.602 40.8284C161.499 43.2119 161.735 45.8356 161.281 48.3676C160.827 50.8995 159.703 53.2259 158.05 55.0524C156.398 56.8788 154.292 58.1232 151.998 58.6282C149.705 59.1331 147.327 58.8759 145.166 57.889C143.005 56.9021 141.158 55.23 139.859 53.0842C138.559 50.9383 137.865 48.4152 137.865 45.8341C137.879 42.382 139.126 39.0751 141.336 36.6323C143.546 34.1894 146.541 32.8079 149.669 32.7879ZM149.669 35.0321C147.726 35.0208 145.824 35.6467 144.204 36.8305C142.584 38.0144 141.319 39.7027 140.57 41.6812C139.821 43.6597 139.622 45.8392 139.997 47.9431C140.372 50.047 141.305 51.9803 142.678 53.4979C144.051 55.0154 145.801 56.0487 147.706 56.4666C149.612 56.8845 151.587 56.6681 153.381 55.8449C155.175 55.0218 156.707 53.629 157.782 51.8432C158.858 50.0575 159.428 47.9593 159.421 45.8151C159.421 42.9585 158.394 40.2186 156.566 38.197C154.737 36.1753 152.257 35.0371 149.669 35.0321Z" fill="#F2F2F2" fill-opacity="0.4"/>
</svg>
